<svg xmlns="http://www.w3.org/2000/svg" xml:space="preserve" style="fill-rule:evenodd;clip-rule:evenodd;stroke-linecap:round;stroke-linejoin:round;stroke-miterlimit:1.5" viewBox="0 0 302 302"><path d="m170.709 8.52 122.229 122.23c11.028 11.027 11.028 28.932 0 39.959L170.709 292.938c-11.027 11.028-28.932 11.028-39.959 0L8.52 170.709c-11.027-11.027-11.027-28.932 0-39.959L130.75 8.52c11.027-11.027 28.932-11.027 39.959 0Z" style="stroke:#000;stroke-width:.5px"/><ellipse cx="150.729" cy="150.729" rx="148" ry="56" style="fill:none;stroke:#fff;stroke-width:2px;stroke-miterlimit:25"/><ellipse cx="150.729" cy="150.729" rx="142" ry="48" style="fill:none;stroke:#fff;stroke-width:2px;stroke-miterlimit:25"/><ellipse cx="150.729" cy="150.729" rx="136" ry="40" style="fill:none;stroke:#fff;stroke-width:2px;stroke-miterlimit:25"/><ellipse cx="150.729" cy="150.729" rx="130" ry="32" style="fill:none;stroke:#fff;stroke-width:2px;stroke-miterlimit:25"/><ellipse cx="150.729" cy="150.729" rx="124" ry="24" style="fill:none;stroke:#fff;stroke-width:2px;stroke-miterlimit:25"/><ellipse cx="150.729" cy="150.729" rx="118" ry="16" style="fill:none;stroke:#fff;stroke-width:2px;stroke-miterlimit:25"/><ellipse cx="150.729" cy="150.729" rx="112" ry="8" style="fill:none;stroke:#fff;stroke-width:2px;stroke-miterlimit:25"/><ellipse cx="150.729" cy="150.729" rx="106.5" ry=".5" style="fill:none;stroke:#fff;stroke-width:2px;stroke-miterlimit:25"/><path d="M94.729 150.729c0-81.683 25.093-148 56-148 30.908 0 56 66.317 56 148 0 81.684-25.092 148-56 148-30.907 0-56-66.316-56-148Z" style="fill:none;stroke:#fff;stroke-width:2px;stroke-miterlimit:25"/><path d="M102.729 150.729c0-78.372 21.508-142 48-142s48 63.628 48 142-21.508 142-48 142-48-63.628-48-142Z" style="fill:none;stroke:#fff;stroke-width:2px;stroke-miterlimit:25"/><path d="M110.729 150.729c0-75.06 17.924-136 40-136 22.077 0 40 60.94 40 136 0 75.061-17.923 136-40 136-22.076 0-40-60.939-40-136Z" style="fill:none;stroke:#fff;stroke-width:2px;stroke-miterlimit:25"/><path d="M118.729 150.729c0-71.749 14.339-130 32-130 17.662 0 32 58.251 32 130s-14.338 130-32 130c-17.661 0-32-58.251-32-130Z" style="fill:none;stroke:#fff;stroke-width:2px;stroke-miterlimit:25"/><path d="M126.729 150.729c0-68.437 10.754-124 24-124s24 55.563 24 124c0 68.438-10.754 124-24 124s-24-55.562-24-124Z" style="fill:none;stroke:#fff;stroke-width:2px;stroke-miterlimit:25"/><path d="M134.729 150.729c0-65.126 7.17-118 16-118 8.831 0 16 52.874 16 118s-7.169 118-16 118c-8.83 0-16-52.874-16-118Z" style="fill:none;stroke:#fff;stroke-width:2px;stroke-miterlimit:25"/><path d="M142.729 150.729c0-61.814 3.585-112 8-112 4.416 0 8 50.186 8 112 0 61.815-3.584 112-8 112-4.415 0-8-50.185-8-112Z" style="fill:none;stroke:#fff;stroke-width:2px;stroke-miterlimit:25"/><path d="M150.229 150.729c0-58.779.224-106.5.5-106.5s.5 47.721.5 106.5-.224 106.5-.5 106.5-.5-47.721-.5-106.5Z" style="fill:none;stroke:#fff;stroke-width:2px;stroke-miterlimit:25"/><path d="M180.456 181.152c-43.868 43.868-92.959 66.007-109.557 49.408-16.599-16.598 5.54-65.689 49.408-109.557 43.867-43.867 92.958-66.006 109.557-49.408 16.598 16.599-5.541 65.69-49.408 109.557Z" style="fill:none;stroke:#fff;stroke-width:2px;stroke-miterlimit:25"/><path d="M176.159 176.856c-42.089 42.089-87.811 64.709-102.038 50.482-14.227-14.227 8.393-59.949 50.482-102.038 42.089-42.09 87.811-64.71 102.038-50.482 14.228 14.227-8.393 59.949-50.482 102.038Z" style="fill:none;stroke:#fff;stroke-width:2px;stroke-miterlimit:25"/><path d="M171.863 172.559c-40.311 40.311-82.664 63.413-94.52 51.557-11.856-11.857 11.246-54.209 51.556-94.52 40.311-40.311 82.664-63.412 94.52-51.556 11.856 11.856-11.245 54.209-51.556 94.519Z" style="fill:none;stroke:#fff;stroke-width:2px;stroke-miterlimit:25"/><path d="M167.566 168.263c-38.532 38.532-77.516 62.115-87.001 52.63-9.484-9.485 14.098-48.468 52.631-87.001 38.532-38.532 77.516-62.115 87.001-52.63s-14.098 48.469-52.631 87.001Z" style="fill:none;stroke:#fff;stroke-width:2px;stroke-miterlimit:25"/><path d="M163.27 163.967c-36.754 36.754-72.369 60.818-79.482 53.704-7.114-7.114 16.95-42.728 53.704-79.482 36.754-36.754 72.369-60.818 79.482-53.705 7.114 7.114-16.95 42.729-53.704 79.483Z" style="fill:none;stroke:#fff;stroke-width:2px;stroke-miterlimit:25"/><path d="M158.974 159.67c-34.976 34.976-67.222 59.521-71.964 54.779-4.742-4.743 19.803-36.989 54.778-71.964 34.976-34.976 67.222-59.521 71.964-54.778 4.743 4.742-19.803 36.988-54.778 71.963Z" style="fill:none;stroke:#fff;stroke-width:2px;stroke-miterlimit:25"/><path d="M154.677 155.374c-33.197 33.197-62.074 58.224-64.445 55.853-2.371-2.372 22.656-31.249 55.853-64.446s62.074-58.223 64.445-55.852c2.371 2.371-22.656 31.248-55.853 64.445Z" style="fill:none;stroke:#fff;stroke-width:2px;stroke-miterlimit:25"/><path d="M150.65 151.346c-31.567 31.567-57.316 57.075-57.464 56.927-.148-.148 25.36-25.897 56.927-57.464 31.566-31.567 57.315-57.075 57.463-56.926.148.148-25.36 25.896-56.926 57.463Z" style="fill:none;stroke:#fff;stroke-width:2px;stroke-miterlimit:25"/><path d="M180.456 121.003c43.867 43.868 66.006 92.959 49.408 109.557-16.599 16.599-65.69-5.54-109.557-49.408C76.439 137.285 54.3 88.194 70.899 71.595c16.598-16.598 65.689 5.541 109.557 49.408Z" style="fill:none;stroke:#fff;stroke-width:2px;stroke-miterlimit:25"/><path d="M176.159 125.3c42.089 42.089 64.71 87.811 50.482 102.038-14.227 14.227-59.949-8.393-102.038-50.482S59.894 89.045 74.121 74.818C88.348 60.59 134.07 83.21 176.159 125.3Z" style="fill:none;stroke:#fff;stroke-width:2px;stroke-miterlimit:25"/><path d="M171.863 129.596c40.311 40.311 63.412 82.663 51.556 94.52-11.856 11.856-54.209-11.246-94.52-51.557-40.31-40.31-63.412-82.663-51.556-94.519 11.856-11.856 54.209 11.245 94.52 51.556Z" style="fill:none;stroke:#fff;stroke-width:2px;stroke-miterlimit:25"/><path d="M167.566 133.892c38.533 38.533 62.116 77.516 52.631 87.001s-48.469-14.098-87.001-52.63c-38.533-38.532-62.115-77.516-52.631-87.001 9.485-9.485 48.469 14.098 87.001 52.63Z" style="fill:none;stroke:#fff;stroke-width:2px;stroke-miterlimit:25"/><path d="M163.27 138.189c36.754 36.754 60.818 72.368 53.704 79.482-7.113 7.114-42.728-16.95-79.482-53.704-36.754-36.754-60.818-72.369-53.704-79.483 7.113-7.113 42.728 16.951 79.482 53.705Z" style="fill:none;stroke:#fff;stroke-width:2px;stroke-miterlimit:25"/><path d="M158.974 142.485c34.975 34.975 59.521 67.221 54.778 71.964-4.742 4.742-36.988-19.803-71.964-54.779-34.975-34.975-59.52-67.221-54.778-71.963 4.742-4.743 36.988 19.802 71.964 54.778Z" style="fill:none;stroke:#fff;stroke-width:2px;stroke-miterlimit:25"/><path d="M154.677 146.781c33.197 33.197 58.224 62.074 55.853 64.446-2.371 2.371-31.248-22.656-64.445-55.853-33.197-33.197-58.224-62.074-55.853-64.445 2.371-2.371 31.248 22.655 64.445 55.852Z" style="fill:none;stroke:#fff;stroke-width:2px;stroke-miterlimit:25"/><path d="M150.65 150.809c31.566 31.567 57.074 57.316 56.926 57.464-.148.148-25.897-25.36-57.463-56.927-31.567-31.567-57.075-57.315-56.927-57.463.148-.149 25.897 25.359 57.464 56.926Z" style="fill:none;stroke:#fff;stroke-width:2px;stroke-miterlimit:25"/></svg>